# File created by Blade
# Date/Time:  Wed Apr 08 17:35:25 2015
# Frame Rate: 120.000 fps
#------------------------------------------------------
:FULLY-SPECIFIED
:DEGREES
2245
root 11.070090 38.489065 4.660535 168.178272 -53.799693 -128.130672
Spine -17.101026 1.783229 2.538302
Head 27.824170 -8.427630 25.760437
LeftShoulder -7.079755 18.648535 19.274463
LeftArm 20.765685 25.127313 -72.862619
LeftForeArm 16.871900 -0.000000 24.909244
LeftHand -14.432087 -0.000000 -10.884117
LeftHandThumb1 -26.253704 0.000000 33.147579
RightShoulder -36.498172 -46.333219 18.677147
RightArm 49.262484 -5.869975 62.261160
RightForeArm 8.673541 -0.000000 12.294736
RightHand -0.809023 -0.000000 16.323606
RightHandThumb1 -24.326973 -0.000000 -32.862282
LeftUpLeg -47.290943 36.466161 -2.412816
LeftLeg 9.745091 -0.000000 -0.000000
LeftFoot -8.888159 6.215028 -9.485319
LeftToeBase 16.546483 -0.000000 -0.000000
RightUpLeg -60.396474 -13.010001 -3.956650
RightLeg 135.095030 -0.000000 -0.000000
RightFoot 42.879265 3.959274 28.420596
RightToeBase 18.610403 -0.000000 -0.000000
2246
root 11.081439 38.499717 4.646170 168.308668 -53.705313 -128.273492
Spine -17.065585 1.688880 2.458649
Head 27.882297 -8.291144 25.893866
LeftShoulder -7.128318 18.703523 19.253679
LeftArm 20.659098 25.170962 -72.775306
LeftForeArm 16.840974 -0.000000 24.800194
LeftHand -14.368040 -0.000000 -11.006924
LeftHandThumb1 -26.253704 0.000000 33.147579
RightShoulder -36.526704 -46.326832 18.789635
RightArm 49.311035 -5.879528 62.313282
RightForeArm 9.107119 -0.000000 12.330789
RightHand -0.620741 -0.000000 16.824617
RightHandThumb1 -24.326973 -0.000000 -32.862282
LeftUpLeg -47.343081 36.832564 -2.655302
LeftLeg 9.610725 -0.000000 -0.000000
LeftFoot -8.958299 5.710941 -10.068378
LeftToeBase 16.478500 -0.000000 -0.000000
RightUpLeg -60.527572 -12.790079 -3.073792
RightLeg 135.111446 -0.000000 -0.000000
RightFoot 43.019726 4.180051 28.314219
RightToeBase 17.990929 -0.000000 -0.000000
2247
root 11.091665 38.509945 4.629548 168.413417 -53.562381 -128.404238
Spine -17.015898 1.621226 2.391662
Head 27.946790 -8.168658 26.042392
LeftShoulder -7.167121 18.750879 19.251459
LeftArm 20.534358 25.204517 -72.718856
LeftForeArm 16.820583 -0.000000 24.676808
LeftHand -14.260595 -0.000000 -11.197846
LeftHandThumb1 -26.253704 0.000000 33.147579
RightShoulder -36.562600 -46.313959 18.903970
RightArm 49.341791 -5.916677 62.340255
RightForeArm 9.653165 -0.000000 12.367450
RightHand -0.429091 -0.000000 17.304449
RightHandThumb1 -24.326973 -0.000000 -32.862282
LeftUpLeg -47.344388 37.198283 -2.830730
LeftLeg 9.461998 -0.000000 -0.000000
LeftFoot -9.012865 5.340023 -10.381858
LeftToeBase 16.539802 -0.000000 -0.000000
RightUpLeg -60.658861 -12.504145 -2.106393
RightLeg 135.063994 -0.000000 -0.000000
RightFoot 43.194693 4.275615 28.359563
RightToeBase 18.065752 -0.000000 -0.000000
2248
root 11.108821 38.524908 4.603361 168.312856 -53.382424 -128.296886
Spine -16.935135 1.560403 2.482711
Head 27.983833 -8.041263 26.157175
LeftShoulder -7.185490 18.778987 19.252176
LeftArm 20.356004 25.167333 -72.725909
LeftForeArm 16.948305 0.000000 24.623027
LeftHand -14.313808 -0.000000 -11.256904
LeftHandThumb1 -26.253704 0.000000 33.147579
RightShoulder -36.580413 -46.253691 18.956169
RightArm 49.295919 -5.911143 62.487562
RightForeArm 10.010466 -0.000000 12.428797
RightHand -0.205474 -0.000000 17.744033
RightHandThumb1 -24.326973 -0.000000 -32.862282
LeftUpLeg -47.311802 37.501218 -2.738364
LeftLeg 9.375436 -0.000000 -0.000000
LeftFoot -9.084676 5.046076 -10.686728
LeftToeBase 16.831472 -0.000000 -0.000000
RightUpLeg -60.788372 -12.163783 -0.854835
RightLeg 134.938252 -0.000000 -0.000000
RightFoot 43.323461 4.251699 28.420100
RightToeBase 17.688782 -0.000000 -0.000000
2249
root 11.124687 38.536397 4.582055 168.379431 -53.175599 -128.357075
Spine -16.895903 1.499977 2.460249
Head 28.048240 -7.893814 26.310236
LeftShoulder -7.248167 18.833845 19.287920
LeftArm 20.192520 25.105824 -72.762830
LeftForeArm 16.979181 -0.000000 24.580521
LeftHand -14.244510 -0.000000 -11.186564
LeftHandThumb1 -26.253704 0.000000 33.147579
RightShoulder -36.513567 -46.194185 18.964988
RightArm 49.153809 -5.874436 62.685725
RightForeArm 10.387440 -0.000000 12.539761
RightHand -0.130082 -0.000000 18.140534
RightHandThumb1 -24.326973 -0.000000 -32.862282
LeftUpLeg -47.211399 37.737680 -2.644674
LeftLeg 9.243484 -0.000000 -0.000000
LeftFoot -9.128365 4.821859 -10.922973
LeftToeBase 16.671627 -0.000000 -0.000000
RightUpLeg -60.987689 -11.771038 0.338406
RightLeg 134.779527 -0.000000 -0.000000
RightFoot 43.415477 4.169024 28.630266
RightToeBase 17.829732 -0.000000 -0.000000
2250
root 11.139619 38.546655 4.560278 168.504436 -52.942604 -128.481309
Spine -16.861751 1.478190 2.380809
Head 28.073450 -7.804396 26.507047
LeftShoulder -7.280718 18.897347 19.329250
LeftArm 20.033282 25.038024 -72.773916
LeftForeArm 17.023615 -0.000000 24.548155
LeftHand -14.218330 -0.000000 -11.335875
LeftHandThumb1 -26.253704 0.000000 33.147579
RightShoulder -36.546646 -46.130352 19.057932
RightArm 49.083465 -5.885236 62.810797
RightForeArm 10.825235 0.000000 12.545484
RightHand -0.002378 -0.000000 18.598910
RightHandThumb1 -24.326973 -0.000000 -32.862282
LeftUpLeg -47.047568 37.910401 -2.464627
LeftLeg 9.143597 -0.000000 -0.000000
LeftFoot -9.232781 4.676577 -11.251203
LeftToeBase 16.880882 -0.000000 -0.000000
RightUpLeg -61.231882 -11.337471 1.580073
RightLeg 134.588374 -0.000000 -0.000000
RightFoot 43.330854 4.066716 28.787895
RightToeBase 18.420586 -0.000000 -0.000000
2251
root 11.158160 38.556910 4.536650 168.673538 -52.662744 -128.621766
Spine -16.860176 1.496685 2.276227
Head 28.088590 -7.707433 26.729287
LeftShoulder -7.262841 18.894358 19.416239
LeftArm 19.752483 24.951255 -72.847859
LeftForeArm 17.161351 0.000000 24.584545
LeftHand -14.460024 -0.000000 -11.338074
LeftHandThumb1 -26.253704 0.000000 33.147579
RightShoulder -36.599761 -46.069261 19.177266
RightArm 48.993088 -5.877325 62.964216
RightForeArm 11.212481 -0.000000 12.571196
RightHand 0.006735 -0.000000 18.871419
RightHandThumb1 -24.326973 -0.000000 -32.862282
LeftUpLeg -46.908158 38.087308 -2.249276
LeftLeg 9.078912 -0.000000 -0.000000
LeftFoot -9.372059 4.557483 -11.590793
LeftToeBase 16.755119 -0.000000 -0.000000
RightUpLeg -61.562220 -10.859492 2.940740
RightLeg 134.345129 -0.000000 -0.000000
RightFoot 43.254744 4.115421 28.698408
RightToeBase 18.776894 -0.000000 -0.000000
2252
root 11.179991 38.567925 4.511910 168.906357 -52.319328 -128.807472
Spine -16.885207 1.543870 2.131547
Head 28.114289 -7.596190 26.993715
LeftShoulder -7.241022 18.942392 19.511212
LeftArm 19.512494 24.845218 -72.892218
LeftForeArm 17.076726 -0.000000 24.625572
LeftHand -14.412672 -0.000000 -11.312092
LeftHandThumb1 -26.253704 0.000000 33.147579
RightShoulder -36.675743 -46.031797 19.356029
RightArm 48.961512 -5.917077 63.018845
RightForeArm 11.656969 -0.000000 12.516691
RightHand 0.210597 0.000000 19.033309
RightHandThumb1 -24.326973 -0.000000 -32.862282
LeftUpLeg -46.801923 38.295416 -2.039728
LeftLeg 9.037930 -0.000000 -0.000000
LeftFoot -9.474712 4.597584 -11.859008
LeftToeBase 16.521820 -0.000000 -0.000000
RightUpLeg -61.935529 -10.229158 4.305294
RightLeg 134.047240 -0.000000 -0.000000
RightFoot 43.057582 4.048034 28.863584
RightToeBase 19.509523 -0.000000 -0.000000
2253
root 11.202478 38.578068 4.481140 169.014793 -52.019788 -128.903350
Spine -16.843336 1.487644 2.042732
Head 28.162069 -7.447844 27.252758
LeftShoulder -7.254737 18.964480 19.579272
LeftArm 19.224089 24.720461 -72.930596
LeftForeArm 17.107917 -0.000000 24.726191
LeftHand -14.627426 0.000000 -11.185693
LeftHandThumb1 -26.253704 0.000000 33.147579
RightShoulder -36.651787 -45.986850 19.454337
RightArm 48.842241 -5.915482 63.128951
RightForeArm 11.782276 -0.000000 12.589356
RightHand 0.169024 0.000000 19.005976
RightHandThumb1 -24.326973 -0.000000 -32.862282
LeftUpLeg -46.644712 38.439003 -1.733340
LeftLeg 9.022605 -0.000000 -0.000000
LeftFoot -9.568708 4.664912 -12.090033
LeftToeBase 16.763628 -0.000000 -0.000000
RightUpLeg -62.237520 -9.668221 5.744957
RightLeg 133.666383 -0.000000 -0.000000
RightFoot 42.761046 4.059145 29.056388
RightToeBase 20.476801 -0.000000 -0.000000
2254
root 11.228867 38.587742 4.449333 169.121866 -51.726598 -128.972898
Spine -16.813653 1.422392 1.955170
Head 28.193860 -7.292347 27.512804
LeftShoulder -7.214373 19.014204 19.661508
LeftArm 18.977909 24.623537 -72.923449
LeftForeArm 17.010852 -0.000000 24.801675
LeftHand -14.604749 0.000000 -11.226833
LeftHandThumb1 -26.253704 0.000000 33.147579
RightShoulder -36.741202 -45.977780 19.670143
RightArm 48.801182 -5.877587 63.204362
RightForeArm 11.697571 -0.000000 12.691621
RightHand 0.135218 -0.000000 18.890753
RightHandThumb1 -24.326973 -0.000000 -32.862282
LeftUpLeg -46.588279 38.608648 -1.498216
LeftLeg 9.043135 -0.000000 -0.000000
LeftFoot -9.594706 4.770057 -12.125922
LeftToeBase 16.274209 -0.000000 -0.000000
RightUpLeg -62.581912 -9.112371 7.266099
RightLeg 133.212932 -0.000000 -0.000000
RightFoot 42.411570 4.194244 29.472977
RightToeBase 21.058342 -0.000000 -0.000000
2255
root 11.256490 38.592482 4.418785 169.272300 -51.473212 -129.076316
Spine -16.789999 1.282476 1.842136
Head 28.222702 -7.089947 27.773137
LeftShoulder -7.226632 19.027380 19.725067
LeftArm 18.702908 24.552088 -72.895177
LeftForeArm 16.802380 -0.000000 24.892614
LeftHand -14.421679 -0.000000 -11.297978
LeftHandThumb1 -26.253704 0.000000 33.147579
RightShoulder -37.068294 -46.076263 20.069537
RightArm 49.050634 -5.965574 63.050031
RightForeArm 11.662166 -0.000000 12.718855
RightHand 0.164214 -0.000000 18.695851
RightHandThumb1 -24.326973 -0.000000 -32.862282
LeftUpLeg -46.555994 38.723848 -1.318926
LeftLeg 9.053675 -0.000000 -0.000000
LeftFoot -9.607334 4.953914 -12.053068
LeftToeBase 16.307571 -0.000000 -0.000000
RightUpLeg -62.908131 -8.606169 8.759760
RightLeg 132.758621 -0.000000 -0.000000
RightFoot 41.748275 4.410271 30.107112
RightToeBase 20.139354 -0.000000 -0.000000
2256
root 11.288804 38.598957 4.389177 169.430725 -51.216453 -129.124512
Spine -16.836845 1.120062 1.768015
Head 28.306562 -6.857629 28.018189
LeftShoulder -7.228012 19.145930 19.760976
LeftArm 18.550242 24.477606 -72.795470
LeftForeArm 16.654577 -0.000000 24.964350
LeftHand -14.621599 -0.000000 -11.123264
LeftHandThumb1 -26.253704 0.000000 33.147579
RightShoulder -37.141266 -46.156930 20.240364
RightArm 49.035860 -6.025527 63.054799
RightForeArm 11.372710 -0.000000 12.884909
RightHand 0.297504 -0.000000 18.243665
RightHandThumb1 -24.326973 -0.000000 -32.862282
LeftUpLeg -46.630824 38.859588 -1.195301
LeftLeg 9.057708 -0.000000 -0.000000
LeftFoot -9.572878 5.149009 -11.901798
LeftToeBase 16.068888 -0.000000 -0.000000
RightUpLeg -63.339021 -8.140755 10.397155
RightLeg 132.277264 -0.000000 -0.000000
RightFoot 40.860292 4.783701 30.641473
RightToeBase 18.679266 -0.000000 -0.000000
2257
root 11.323788 38.603771 4.365869 169.688484 -50.922709 -129.243232
Spine -16.916490 1.008598 1.660903
Head 28.395078 -6.627126 28.223494
LeftShoulder -7.183824 19.157907 19.814861
LeftArm 18.292569 24.382258 -72.747969
LeftForeArm 16.471771 -0.000000 25.005543
LeftHand -14.406554 -0.000000 -11.044187
LeftHandThumb1 -26.253704 0.000000 33.147579
RightShoulder -37.219433 -46.245805 20.398949
RightArm 48.982629 -6.084816 63.078943
RightForeArm 10.990302 -0.000000 13.125956
RightHand 0.424915 -0.000000 17.665171
RightHandThumb1 -24.326973 -0.000000 -32.862282
LeftUpLeg -46.776949 39.058272 -1.185762
LeftLeg 9.043158 -0.000000 -0.000000
LeftFoot -9.566153 5.304768 -11.773645
LeftToeBase 15.782522 -0.000000 -0.000000
RightUpLeg -63.802629 -7.615758 12.008626
RightLeg 131.775804 -0.000000 -0.000000
RightFoot 39.674031 5.128157 31.756142
RightToeBase 17.836176 -0.000000 -0.000000
